{
    "asset" : {
        "generator" : "Khronos glTF Blender I/O v1.2.75",
        "version" : "2.0"
    },
    "scene" : 0,
    "scenes" : [
        {
            "name" : "Scene",
            "nodes" : [
                0
            ]
        }
    ],
    "nodes" : [
        {
            "mesh" : 0,
            "name" : "Cube",
            "scale" : [
                2,
                2,
                5
            ]
        }
    ],
    "materials" : [
        {
            "doubleSided" : true,
            "emissiveFactor" : [
                0,
                0,
                0
            ],
            "name" : "Material.001",
            "pbrMetallicRoughness" : {
                "baseColorTexture" : {
                    "index" : 0,
                    "texCoord" : 0
                },
                "metallicFactor" : 0,
                "roughnessFactor" : 0.5
            }
        }
    ],
    "meshes" : [
        {
            "name" : "Cube.001",
            "primitives" : [
                {
                    "attributes" : {
                        "POSITION" : 0,
                        "NORMAL" : 1,
                        "TEXCOORD_0" : 2,
                        "TEXCOORD_1" : 3
                    },
                    "indices" : 4,
                    "material" : 0
                }
            ]
        }
    ],
    "textures" : [
        {
            "source" : 0
        }
    ],
    "images" : [
        {
            "mimeType" : "image/jpeg",
            "name" : "ovelhine-Z1aTc4CHBIM-unsplash",
            "uri" : "ovelhine-Z1aTc4CHBIM-unsplash.jpg"
        }
    ],
    "accessors" : [
        {
            "bufferView" : 0,
            "componentType" : 5126,
            "count" : 65,
            "max" : [
                1.0057034492492676,
                0.49339064955711365,
                0.9167842864990234
            ],
            "min" : [
                -1.0044149160385132,
                -1.004745602607727,
                -1.0026147365570068
            ],
            "type" : "VEC3"
        },
        {
            "bufferView" : 1,
            "componentType" : 5126,
            "count" : 65,
            "type" : "VEC3"
        },
        {
            "bufferView" : 2,
            "componentType" : 5126,
            "count" : 65,
            "type" : "VEC2"
        },
        {
            "bufferView" : 3,
            "componentType" : 5126,
            "count" : 65,
            "type" : "VEC2"
        },
        {
            "bufferView" : 4,
            "componentType" : 5123,
            "count" : 288,
            "type" : "SCALAR"
        }
    ],
    "bufferViews" : [
        {
            "buffer" : 0,
            "byteLength" : 780,
            "byteOffset" : 0
        },
        {
            "buffer" : 0,
            "byteLength" : 780,
            "byteOffset" : 780
        },
        {
            "buffer" : 0,
            "byteLength" : 520,
            "byteOffset" : 1560
        },
        {
            "buffer" : 0,
            "byteLength" : 520,
            "byteOffset" : 2080
        },
        {
            "buffer" : 0,
            "byteLength" : 576,
            "byteOffset" : 2600
        }
    ],
    "buffers" : [
        {
            "byteLength" : 3176,
            "uri" : "scene.bin"
        }
    ]
}
