{
    "asset" : {
        "generator" : "Khronos glTF Blender I/O v1.2.75",
        "version" : "2.0"
    },
    "scene" : 0,
    "scenes" : [
        {
            "name" : "Scene",
            "nodes" : [
                0,
                1,
                2,
                3
            ]
        }
    ],
    "nodes" : [
        {
            "name" : "Empty",
            "translation" : [
                0.9964490532875061,
                0.29828542470932007,
                -0.60254967212677
            ]
        },
        {
            "mesh" : 0,
            "name" : "Cube.003",
            "scale" : [
                1.5,
                4,
                6
            ],
            "translation" : [
                -2,
                0,
                0
            ]
        },
        {
            "mesh" : 1,
            "name" : "Cube.004",
            "scale" : [
                1,
                2,
                1
            ],
            "translation" : [
                0,
                -2,
                2.4301719665527344
            ]
        },
        {
            "mesh" : 2,
            "name" : "Cube.005",
            "scale" : [
                1,
                4,
                1.25
            ],
            "translation" : [
                0,
                0,
                -4.75
            ]
        }
    ],
    "materials" : [
        {
            "doubleSided" : true,
            "emissiveFactor" : [
                0,
                0,
                0
            ],
            "name" : "Material.001",
            "pbrMetallicRoughness" : {
                "baseColorTexture" : {
                    "index" : 0,
                    "texCoord" : 0
                },
                "metallicFactor" : 0,
                "roughnessFactor" : 0.5
            }
        },
        {
            "doubleSided" : true,
            "emissiveFactor" : [
                0,
                0,
                0
            ],
            "name" : "RightWall",
            "pbrMetallicRoughness" : {
                "baseColorTexture" : {
                    "index" : 1,
                    "texCoord" : 0
                },
                "metallicFactor" : 0,
                "roughnessFactor" : 0.5
            }
        },
        {
            "doubleSided" : true,
            "emissiveFactor" : [
                0,
                0,
                0
            ],
            "name" : "LeftWall",
            "pbrMetallicRoughness" : {
                "baseColorTexture" : {
                    "index" : 2,
                    "texCoord" : 0
                },
                "metallicFactor" : 0,
                "roughnessFactor" : 0.5
            }
        }
    ],
    "meshes" : [
        {
            "name" : "Cube",
            "primitives" : [
                {
                    "attributes" : {
                        "POSITION" : 0,
                        "NORMAL" : 1,
                        "TEXCOORD_0" : 2
                    },
                    "indices" : 3,
                    "material" : 0
                }
            ]
        },
        {
            "name" : "Cube.001",
            "primitives" : [
                {
                    "attributes" : {
                        "POSITION" : 4,
                        "NORMAL" : 5,
                        "TEXCOORD_0" : 6
                    },
                    "indices" : 7,
                    "material" : 1
                }
            ]
        },
        {
            "name" : "Cube.002",
            "primitives" : [
                {
                    "attributes" : {
                        "POSITION" : 8,
                        "NORMAL" : 9,
                        "TEXCOORD_0" : 10
                    },
                    "indices" : 11,
                    "material" : 2
                }
            ]
        }
    ],
    "textures" : [
        {
            "source" : 0
        },
        {
            "source" : 1
        },
        {
            "source" : 2
        }
    ],
    "images" : [
        {
            "mimeType" : "image/png",
            "name" : "back-texture",
            "uri" : "back-texture.png"
        },
        {
            "mimeType" : "image/png",
            "name" : "middletexture",
            "uri" : "middletexture.png"
        },
        {
            "mimeType" : "image/png",
            "name" : "righttexture",
            "uri" : "righttexture.png"
        }
    ],
    "accessors" : [
        {
            "bufferView" : 0,
            "componentType" : 5126,
            "count" : 195,
            "max" : [
                1,
                1,
                1
            ],
            "min" : [
                -1,
                -1,
                -1
            ],
            "type" : "VEC3"
        },
        {
            "bufferView" : 1,
            "componentType" : 5126,
            "count" : 195,
            "type" : "VEC3"
        },
        {
            "bufferView" : 2,
            "componentType" : 5126,
            "count" : 195,
            "type" : "VEC2"
        },
        {
            "bufferView" : 3,
            "componentType" : 5123,
            "count" : 972,
            "type" : "SCALAR"
        },
        {
            "bufferView" : 4,
            "componentType" : 5126,
            "count" : 102,
            "max" : [
                1.2777756452560425,
                1.034669041633606,
                1.5033390522003174
            ],
            "min" : [
                -1.1333547830581665,
                -1.1799601316452026,
                -1.526950478553772
            ],
            "type" : "VEC3"
        },
        {
            "bufferView" : 5,
            "componentType" : 5126,
            "count" : 102,
            "type" : "VEC3"
        },
        {
            "bufferView" : 6,
            "componentType" : 5126,
            "count" : 102,
            "type" : "VEC2"
        },
        {
            "bufferView" : 7,
            "componentType" : 5123,
            "count" : 468,
            "type" : "SCALAR"
        },
        {
            "bufferView" : 8,
            "componentType" : 5126,
            "count" : 128,
            "max" : [
                1.5288432836532593,
                0.9663340449333191,
                1.5110067129135132
            ],
            "min" : [
                -1.1370770931243896,
                -1.2600609064102173,
                -1.2092663049697876
            ],
            "type" : "VEC3"
        },
        {
            "bufferView" : 9,
            "componentType" : 5126,
            "count" : 128,
            "type" : "VEC3"
        },
        {
            "bufferView" : 10,
            "componentType" : 5126,
            "count" : 128,
            "type" : "VEC2"
        },
        {
            "bufferView" : 11,
            "componentType" : 5123,
            "count" : 612,
            "type" : "SCALAR"
        }
    ],
    "bufferViews" : [
        {
            "buffer" : 0,
            "byteLength" : 2340,
            "byteOffset" : 0
        },
        {
            "buffer" : 0,
            "byteLength" : 2340,
            "byteOffset" : 2340
        },
        {
            "buffer" : 0,
            "byteLength" : 1560,
            "byteOffset" : 4680
        },
        {
            "buffer" : 0,
            "byteLength" : 1944,
            "byteOffset" : 6240
        },
        {
            "buffer" : 0,
            "byteLength" : 1224,
            "byteOffset" : 8184
        },
        {
            "buffer" : 0,
            "byteLength" : 1224,
            "byteOffset" : 9408
        },
        {
            "buffer" : 0,
            "byteLength" : 816,
            "byteOffset" : 10632
        },
        {
            "buffer" : 0,
            "byteLength" : 936,
            "byteOffset" : 11448
        },
        {
            "buffer" : 0,
            "byteLength" : 1536,
            "byteOffset" : 12384
        },
        {
            "buffer" : 0,
            "byteLength" : 1536,
            "byteOffset" : 13920
        },
        {
            "buffer" : 0,
            "byteLength" : 1024,
            "byteOffset" : 15456
        },
        {
            "buffer" : 0,
            "byteLength" : 1224,
            "byteOffset" : 16480
        }
    ],
    "buffers" : [
        {
            "byteLength" : 17704,
            "uri" : "scene.bin"
        }
    ]
}
