{
  "accessors": [
    {
      "bufferView": 2,
      "componentType": 5126,
      "count": 1778,
      "max": [
        0.51293838024139404,
        0.7106897234916687,
        0.50549739599227905
      ],
      "min": [
        -0.50912290811538696,
        -0.5,
        -0.50264227390289307
      ],
      "type": "VEC3"
    },
    {
      "bufferView": 2,
      "byteOffset": 21336,
      "componentType": 5126,
      "count": 1778,
      "max": [
        0.9999573826789856,
        1,
        1
      ],
      "min": [
        -1,
        -1,
        -1
      ],
      "type": "VEC3"
    },
    {
      "bufferView": 3,
      "componentType": 5126,
      "count": 1778,
      "max": [
        0.99999517202377319,
        0.99999815225601196,
        0.99999803304672241,
        1
      ],
      "min": [
        -0.99998730421066284,
        -0.99929642677307129,
        -0.99992573261260986,
        -1
      ],
      "type": "VEC4"
    },
    {
      "bufferView": 1,
      "componentType": 5126,
      "count": 1778,
      "max": [
        0.98235476016998291,
        0.95779752731323242
      ],
      "min": [
        0.010661602020263672,
        0.22724871337413788
      ],
      "type": "VEC2"
    },
    {
      "bufferView": 0,
      "componentType": 5125,
      "count": 5274,
      "max": [
        1777
      ],
      "min": [
        0
      ],
      "type": "SCALAR"
    }
  ],
  "asset": {
    "extras": {
      "author": "abdillaamy (https://sketchfab.com/abdillaamy)",
      "license": "CC-BY-4.0 (http://creativecommons.org/licenses/by/4.0/)",
      "source": "https://sketchfab.com/models/dae37cc4869a4155b6999efe26df710c",
      "title": "Closed Magazine"
    },
    "generator": "Sketchfab-3.18.6",
    "version": "2.0"
  },
  "bufferViews": [
    {
      "buffer": 0,
      "byteLength": 21096,
      "byteOffset": 0,
      "name": "floatBufferViews",
      "target": 34963
    },
    {
      "buffer": 0,
      "byteLength": 14224,
      "byteOffset": 21096,
      "byteStride": 8,
      "name": "floatBufferViews",
      "target": 34962
    },
    {
      "buffer": 0,
      "byteLength": 42672,
      "byteOffset": 35320,
      "byteStride": 12,
      "name": "floatBufferViews",
      "target": 34962
    },
    {
      "buffer": 0,
      "byteLength": 28448,
      "byteOffset": 77992,
      "byteStride": 16,
      "name": "floatBufferViews",
      "target": 34962
    }
  ],
  "buffers": [
    {
      "byteLength": 106440,
      "uri": "scene.bin"
    }
  ],
  "images": [
    {
      "uri": "textures/MagTexture_baseColor.jpeg"
    }
  ],
  "materials": [
    {
      "doubleSided": true,
      "emissiveFactor": [
        0,
        0,
        0
      ],
      "name": "MagTexture",
      "pbrMetallicRoughness": {
        "baseColorFactor": [
          1,
          1,
          1,
          1
        ],
        "baseColorTexture": {
          "index": 0,
          "texCoord": 0
        },
        "metallicFactor": 0,
        "roughnessFactor": 0.37023628050000001
      }
    }
  ],
  "meshes": [
    {
      "name": "Magazine_MagTexture_0",
      "primitives": [
        {
          "attributes": {
            "NORMAL": 1,
            "POSITION": 0,
            "TANGENT": 2,
            "TEXCOORD_0": 3
          },
          "indices": 4,
          "material": 0,
          "mode": 4
        }
      ]
    }
  ],
  "nodes": [
    {
      "children": [
        1
      ],
      "name": "RootNode (gltf orientation matrix)",
      "rotation": [
        -0.70710678118654746,
        -0,
        -0,
        0.70710678118654757
      ]
    },
    {
      "children": [
        2
      ],
      "name": "RootNode (model correction matrix)"
    },
    {
      "children": [
        3
      ],
      "matrix": [
        1,
        0,
        0,
        0,
        0,
        0,
        1,
        0,
        0,
        -1,
        0,
        0,
        0,
        0,
        0,
        1
      ],
      "name": "9f7240c964384aa7a0b38d8ace069fa9.fbx"
    },
    {
      "children": [
        4
      ],
      "name": "RootNode"
    },
    {
      "children": [
        5
      ],
      "matrix": [
        13.449596405029297,
        0,
        0,
        0,
        0,
        0.58018594980239868,
        0,
        0,
        0,
        0,
        23.556512832641602,
        0,
        -0.87031590938568115,
        0.3711361289024353,
        0,
        1
      ],
      "name": "Magazine"
    },
    {
      "mesh": 0,
      "name": "Magazine_MagTexture_0"
    }
  ],
  "samplers": [
    {
      "magFilter": 9729,
      "minFilter": 9987,
      "wrapS": 10497,
      "wrapT": 10497
    }
  ],
  "scene": 0,
  "scenes": [
    {
      "name": "OSG_Scene",
      "nodes": [
        0
      ]
    }
  ],
  "textures": [
    {
      "sampler": 0,
      "source": 0
    }
  ]
}

